<svg width="1440" height="217" viewBox="0 0 1440 217" fill="none" xmlns="http://www.w3.org/2000/svg">
<path d="M511.442 99.5582C543.95 132.067 563 178.033 563 224C563 269.967 543.95 315.934 511.442 348.442C478.934 380.95 432.967 400 387 400C341.033 400 295.067 380.95 262.558 348.442C230.05 315.934 211 269.967 211 224C211 178.033 230.05 132.067 262.558 99.5582C295.067 67.0499 341.033 48 387 48C432.967 48 478.934 67.0499 511.442 99.5582Z" fill="white"/>
<path d="M694.221 144.779C710.475 161.033 720 184.017 720 207C720 229.983 710.475 252.967 694.221 269.221C677.967 285.475 654.983 295 632 295C609.017 295 586.033 285.475 569.779 269.221C553.525 252.967 544 229.983 544 207C544 184.017 553.525 161.033 569.779 144.779C586.033 128.525 609.017 119 632 119C654.983 119 677.967 128.525 694.221 144.779Z" fill="white"/>
<path d="M1292.28 94.7246C1321.74 124.185 1339 165.843 1339 207.5C1339 249.157 1321.74 290.815 1292.28 320.275C1262.81 349.736 1221.16 367 1179.5 367C1137.84 367 1096.19 349.736 1066.72 320.275C1037.26 290.815 1020 249.157 1020 207.5C1020 165.843 1037.26 124.185 1066.72 94.7246C1096.19 65.264 1137.84 48 1179.5 48C1221.16 48 1262.81 65.264 1292.28 94.7246Z" fill="white"/>
<path d="M1510.28 46.7246C1539.74 76.1853 1557 117.843 1557 159.5C1557 201.157 1539.74 242.815 1510.28 272.275C1480.81 301.736 1439.16 319 1397.5 319C1355.84 319 1314.19 301.736 1284.72 272.275C1255.26 242.815 1238 201.157 1238 159.5C1238 117.843 1255.26 76.1853 1284.72 46.7246C1314.19 17.264 1355.84 0 1397.5 0C1439.16 0 1480.81 17.264 1510.28 46.7246Z" fill="white"/>
<path d="M341.1 79.3C391.1 129.3 420.4 200 420.4 270.7C420.4 341.4 391.1 412.1 341.1 462.1C291.1 512.1 220.4 541.4 149.7 541.4C79 541.4 8.30002 512.1 -41.7 462.1C-91.7 412.1 -121 341.4 -121 270.7C-121 200 -91.7 129.3 -41.7 79.3C8.30002 29.3 79 0 149.7 0C220.4 0 291.1 29.3 341.1 79.3Z" fill="white"/>
</svg>
