<svg width="148" height="53" viewBox="0 0 148 53" fill="none" xmlns="http://www.w3.org/2000/svg">
<path d="M3.76287 48.1071C11.1042 39.0976 20.1026 31.2309 30.2475 25.4119C34.3517 23.0595 39.1496 21.05 43.9764 21.1357C48.8032 21.2214 52.9556 23.7547 54.7572 28.0976C56.5588 32.4405 55.9325 37.1547 54.1117 41.2309C52.2908 45.3071 48.3985 49.7738 43.697 50.6595C38.9955 51.5452 34.3903 48.6595 31.6156 45.2214C28.2243 41.0024 27.5596 35.3738 28.8024 30.2405C31.5193 18.9928 41.9628 12.3262 52.1174 8.17379C63.2835 3.61189 75.4805 1.66903 87.533 2.44998C92.5717 2.77379 98.5354 3.6976 100.838 8.81189C103.141 13.9262 101.31 19.1262 98.2174 23.2309C96.5314 25.469 94.4697 27.4595 92.302 29.25C90.4715 30.7643 88.1785 32.45 85.6832 32.4976C83.5926 32.5357 81.3574 31.269 80.2688 29.5262C78.814 27.2024 79.9027 24.6309 81.5309 22.7262C84.7294 18.9928 89.1708 15.9928 93.4485 13.6024C97.7261 11.2119 102.302 9.42141 107.042 8.22141C116.619 5.79284 126.812 5.84998 136.34 8.46903C138.759 9.1357 141.109 9.97379 143.412 10.9547C144.289 11.3262 145.474 11.069 146.254 10.5833C146.765 10.2595 147.497 9.43093 146.61 9.04046C125.454 -0.264305 98.9015 4.03094 81.4923 18.9738C79.2668 20.8881 76.7812 23.0405 75.7985 25.8786C74.9506 28.3357 75.8177 30.9071 77.8024 32.5452C82.7351 36.6214 89.5562 34.3833 94.1614 30.9928C98.7666 27.6024 103.863 22.45 105.414 16.5738C106.85 11.1452 105.077 5.24998 99.9034 2.51665C97.2251 1.0976 94.1325 0.611886 91.1459 0.335696C87.7257 0.0118861 84.2766 -0.0643043 80.8372 0.0499814C73.8138 0.2976 66.8289 1.35474 60.0657 3.24998C53.3024 5.14522 47.3484 7.5357 41.5775 10.8595C36.163 13.9833 31.0375 18.0976 27.8004 23.4881C24.7464 28.5738 23.253 34.8214 24.7945 40.6309C26.2011 45.9357 30.4017 50.4119 35.6524 52.1738C47.1172 56.0214 58.5145 45.8024 59.6225 34.7547C60.1331 29.6595 58.4953 24.5071 54.1213 21.4976C49.4776 18.3071 43.4176 18.5547 38.1766 19.9262C32.1359 21.5071 26.731 24.7071 21.6441 28.2119C16.1815 31.9738 11.0753 36.2405 6.45084 40.9738C4.24458 43.2309 2.15394 45.5833 0.169278 48.0309C-0.418413 48.7452 0.670261 49.1262 1.20978 49.1452C2.1154 49.1833 3.17518 48.8119 3.75323 48.1071H3.76287Z" fill="#FEA439"/>
</svg>
