<svg width="107" height="107" viewBox="0 0 107 107" fill="none" xmlns="http://www.w3.org/2000/svg">
<path d="M55.215 29.0851C52.3122 28.8467 47.8205 34.7251 47.7563 42.5313C47.7093 48.7872 46.624 55.0302 46.3279 61.2519C46.0082 67.7751 45.7313 74.481 46.1964 81.0106C46.5471 85.9075 48.1968 93.0316 54.1277 93.6218C58.8075 94.0901 57.378 84.6641 57.378 82.0509C57.378 69.8236 57.64 57.6145 57.64 45.3904C57.64 41.7947 57.3203 38.184 57.64 34.6022C57.8153 32.6744 58.2045 29.331 55.215 29.0851Z" fill="#2953A7"/>
<path d="M47.1088 86.3877C46.5817 84.5658 46.3155 82.6627 46.1968 81.0108C45.7317 74.4812 46.0086 67.7752 46.3283 61.252C46.4566 58.5715 46.7303 55.8879 47.0041 53.201C47.3676 49.6491 47.73 46.093 47.7568 42.5315C47.7711 40.3608 48.138 38.2068 48.8431 36.1537C47.3366 33.3353 45.6109 30.7938 44.4519 29.9192C43.4757 29.1815 42.615 28.4416 41.7832 27.7252C39.9955 26.1856 38.335 24.7561 35.9186 23.7104C25.8661 19.3695 8.60496 24.0301 5.16322 36.4199C1.87651 48.2453 4.22767 62.2603 12.8796 68.1462C14.5262 69.2656 19.1066 68.9321 23.3256 68.6252C26.5503 68.39 29.5633 68.1719 30.8945 68.6273C31.0089 68.6669 30.3695 69.1994 29.4949 69.9253C28.3338 70.8898 26.7588 72.1985 25.9912 73.1543C22.482 77.5124 19.0628 82.8049 22.8007 88.2086C22.9546 88.431 23.1107 88.663 23.2679 88.8993C24.0677 90.0925 24.9423 91.398 26.0927 92.171C31.2142 95.5871 36.5345 94.7959 40.8412 91.2547C41.1213 91.0248 41.6517 90.6271 42.3274 90.1192C43.6275 89.1441 45.4655 87.7649 47.1088 86.3877Z" fill="#FFD464"/>
<path d="M57.6292 34.716C57.4292 37.0661 57.4987 39.429 57.5682 41.7919C57.6046 42.9926 57.6399 44.1923 57.6399 45.3908C57.6399 51.5024 57.5747 57.6107 57.5084 63.719C57.4442 69.8273 57.3779 75.9367 57.3779 82.0514C57.3779 82.4577 57.4121 83.0308 57.4528 83.7044C57.5201 84.8014 57.6025 86.1678 57.5789 87.5332C58.9796 88.8355 60.5705 90.1463 61.7467 91.115C62.4203 91.671 62.957 92.1126 63.2435 92.3766C67.3439 96.1616 72.614 97.2522 77.9193 94.1291C79.1147 93.4277 80.0556 92.1767 80.9173 91.0327C81.0906 90.8028 81.2595 90.5772 81.4284 90.3612C85.47 85.1778 82.3404 79.7003 79.0901 75.1508C78.378 74.1608 76.8854 72.7719 75.7809 71.7444C74.947 70.9681 74.3343 70.3983 74.4519 70.3651C75.8066 69.9855 78.8014 70.3758 82.0058 70.7928C86.2013 71.3381 90.7572 71.9304 92.4657 70.9051C101.43 65.5323 104.58 51.6649 101.973 39.6803C99.2391 27.1076 82.2677 21.4804 71.9853 25.2451C69.5154 26.1485 67.7801 27.4797 65.9101 28.9135C65.0355 29.5838 64.132 30.2767 63.111 30.9578C62.9324 31.0764 62.6929 31.2304 62.4053 31.4143C61.2848 32.1307 59.4351 33.3132 57.6292 34.716Z" fill="#FFD464"/>
<path d="M53.5991 28.7382C51.3174 26.3614 51.2405 20.4177 50.3594 17.4389C49.8751 15.8116 48.1494 13.438 48.1494 11.7188" stroke="#292524" stroke-width="0.427678" stroke-linecap="round" stroke-linejoin="round"/>
<path d="M56.3477 29.1659C58.5384 25.7948 60.9441 19.9142 64.6585 10.6924" stroke="#292524" stroke-width="0.427678" stroke-linecap="round" stroke-linejoin="round"/>
<path d="M92.5624 42.3315C93.1686 38.4653 88.4374 30.6591 79.2177 33.8485C73.674 35.7623 68.5365 39.8905 66.7028 45.4353C65.7459 48.2837 65.9405 51.5704 68.1708 53.7997C69.8452 55.4751 72.5695 55.6119 74.771 55.6761C82.3569 55.8899 91.3146 50.3002 92.5624 42.3315Z" fill="#A3E635"/>
<path d="M68.7283 75.2373C59.6081 73.641 65.0385 86.2746 69.8681 85.2696C70.9811 85.0408 72.3572 84.2785 72.973 82.0609C73.5889 79.8434 76.047 75.2363 68.7283 75.2373Z" fill="#A3E635"/>
<path d="M14.398 39.6113C14.0131 35.7163 19.1837 28.1902 28.2013 31.9003C33.6254 34.1338 38.5244 38.5357 40.0405 44.1757C40.8189 47.0754 40.4522 50.345 38.0978 52.4481C36.3304 54.0241 33.6061 54.0049 31.3982 53.945C23.8155 53.7311 15.1924 47.6367 14.398 39.6113Z" fill="#A3E635"/>
<path d="M35.6779 74.1827C41.4505 71.0574 38.7369 85.4125 33.9704 84.1369C32.8702 83.8397 30.3565 81.481 30.1598 80.5722C29.6584 78.3109 30.4645 77.0054 35.6769 74.1827H35.6779Z" fill="#A3E635"/>
<path d="M55.215 29.0851C52.3122 28.8467 47.8205 34.7251 47.7563 42.5313C47.7093 48.7872 46.624 55.0302 46.3279 61.2519C46.0082 67.775 45.7313 74.481 46.1964 81.0106C46.5471 85.9075 48.1968 93.0316 54.1277 93.6218C58.8075 94.0901 57.378 84.6641 57.378 82.0509C57.378 69.8236 57.64 57.6145 57.64 45.3904C57.64 41.7947 57.3203 38.184 57.64 34.6022C57.8153 32.6744 58.2045 29.331 55.215 29.0851Z" stroke="#292524" stroke-width="0.427678" stroke-linecap="round" stroke-linejoin="round"/>
<path d="M47.1088 86.3877C46.5817 84.5658 46.3155 82.6627 46.1968 81.0108C45.7317 74.4812 46.0086 67.7752 46.3283 61.252C46.4566 58.5715 46.7303 55.8879 47.0041 53.201C47.3676 49.6491 47.73 46.093 47.7568 42.5315C47.7712 40.3608 48.138 38.2068 48.8431 36.1537C47.3366 33.3353 45.6109 30.7938 44.4519 29.9192C43.4757 29.1815 42.615 28.4416 41.7832 27.7252C39.9955 26.1856 38.335 24.7561 35.9186 23.7104C25.8661 19.3695 8.60496 24.0301 5.16322 36.4199C1.87651 48.2453 4.22767 62.2603 12.8796 68.1462C14.5262 69.2656 19.1066 68.9321 23.3256 68.6252C26.5503 68.39 29.5633 68.1719 30.8945 68.6273C31.0089 68.6669 30.3695 69.1994 29.4949 69.9253C28.3338 70.8898 26.7588 72.1985 25.9912 73.1543C22.4821 77.5124 19.0628 82.8049 22.8007 88.2086C22.9546 88.431 23.1107 88.663 23.2679 88.8993C24.0677 90.0925 24.9423 91.398 26.0927 92.171C31.2142 95.5871 36.5345 94.7959 40.8412 91.2547C41.1213 91.0248 41.6517 90.6271 42.3274 90.1192C43.6275 89.1441 45.4655 87.7649 47.1088 86.3877Z" stroke="#292524" stroke-width="0.427678" stroke-linecap="round" stroke-linejoin="round"/>
<path d="M57.6292 34.716C57.4292 37.0661 57.4987 39.429 57.5682 41.7919C57.6046 42.9926 57.6399 44.1923 57.6399 45.3908C57.6399 51.5024 57.5747 57.6107 57.5084 63.719C57.4442 69.8273 57.3779 75.9367 57.3779 82.0514C57.3779 82.4577 57.4121 83.0308 57.4528 83.7044C57.5201 84.8014 57.6025 86.1678 57.5789 87.5332C58.9796 88.8355 60.5705 90.1463 61.7467 91.115C62.4203 91.671 62.957 92.1126 63.2435 92.3766C67.3439 96.1616 72.614 97.2522 77.9193 94.1291C79.1147 93.4277 80.0556 92.1767 80.9173 91.0327C81.0906 90.8028 81.2595 90.5772 81.4284 90.3612C85.47 85.1778 82.3404 79.7003 79.0901 75.1508C78.378 74.1608 76.8854 72.7719 75.7809 71.7444C74.947 70.9681 74.3343 70.3983 74.4519 70.3651C75.8066 69.9855 78.8014 70.3758 82.0058 70.7928C86.2013 71.3381 90.7572 71.9304 92.4657 70.9051C101.43 65.5323 104.58 51.6649 101.973 39.6803C99.2391 27.1076 82.2677 21.4804 71.9853 25.2451C69.5154 26.1485 67.7801 27.4797 65.9101 28.9135C65.0355 29.5838 64.132 30.2767 63.111 30.9578C62.9324 31.0764 62.6929 31.2304 62.4053 31.4143C61.2848 32.1307 59.4351 33.3132 57.6292 34.716Z" stroke="#292524" stroke-width="0.427678" stroke-linecap="round" stroke-linejoin="round"/>
<path d="M92.5624 42.3315C93.1686 38.4653 88.4374 30.6591 79.2177 33.8485C73.674 35.7623 68.5365 39.8905 66.7028 45.4353C65.7459 48.2837 65.9405 51.5704 68.1708 53.7997C69.8452 55.4751 72.5695 55.6119 74.771 55.6761C82.3569 55.8899 91.3146 50.3002 92.5624 42.3315Z" stroke="#292524" stroke-width="0.427678" stroke-linecap="round" stroke-linejoin="round"/>
<path d="M68.7283 75.2373C59.6081 73.641 65.0385 86.2746 69.8681 85.2696C70.9811 85.0408 72.3572 84.2785 72.973 82.0609C73.5889 79.8434 76.047 75.2363 68.7283 75.2373Z" stroke="#292524" stroke-width="0.427678" stroke-linecap="round" stroke-linejoin="round"/>
<path d="M14.398 39.6113C14.0131 35.7163 19.1837 28.1902 28.2013 31.9003C33.6254 34.1338 38.5244 38.5357 40.0405 44.1757C40.8189 47.0754 40.4522 50.345 38.0978 52.4481C36.3304 54.0241 33.6061 54.0048 31.3982 53.945C23.8155 53.7311 15.1924 47.6367 14.398 39.6113Z" stroke="#292524" stroke-width="0.427678" stroke-linecap="round" stroke-linejoin="round"/>
<path d="M35.6779 74.1827C41.4505 71.0574 38.7369 85.4125 33.9704 84.1369C32.8702 83.8397 30.3565 81.481 30.1598 80.5722C29.6584 78.3109 30.4645 77.0054 35.6769 74.1827H35.6779Z" stroke="#292524" stroke-width="0.427678" stroke-linecap="round" stroke-linejoin="round"/>
</svg>
