<svg width="164" height="164" viewBox="0 0 164 164" fill="none" xmlns="http://www.w3.org/2000/svg">
<g clip-path="url(#clip0_4868_4267)">
<path d="M120.139 61.6029C113.57 55.2138 104.969 51.034 95.9982 49.5831C73.4075 45.8618 50.32 58.7405 43.8068 82.7773C41.4777 91.5702 41.5951 101.224 44.5147 109.983C47.5284 118.578 53.2746 126.019 60.572 131.52C67.8346 136.891 76.6483 140.322 85.7621 140.766C94.8759 141.209 104.032 138.736 111.752 134.021C119.472 129.307 126.015 122.281 129.878 114.043C133.928 105.476 134.912 95.8015 133.084 86.4714C131.513 77.0716 126.941 68.3441 120.139 61.6029Z" fill="#FF986D"/>
<path d="M145.612 70.3572C143.849 67.9278 140.708 68.0843 138.094 68.6521C134.707 69.4289 131.518 70.4288 128.269 71.7214C128.14 71.7563 128.011 71.7911 128.011 71.7911C128.046 71.9201 128.116 72.178 128.151 72.3069C128.185 72.4359 128.349 72.53 128.384 72.659C128.419 72.7879 128.618 73.011 128.652 73.14C129.778 72.6975 130.939 72.3839 132.065 71.9415C134.48 71.1506 137.188 70.419 139.743 70.144C140.68 70.0291 141.91 69.9734 142.729 70.444C143.548 70.9146 144.015 71.6187 144.259 72.5214C144.817 74.5847 143.98 76.6095 142.582 78.0941C140.996 79.9062 139.048 81.4011 137.099 82.8961C135.057 84.5548 132.98 86.0846 130.902 87.6143C126.747 90.6739 122.523 93.4755 118.135 96.183C109.358 101.598 100.08 106.18 90.6279 110.117C81.0118 113.96 71.0577 117.064 61.0235 119.36C55.9245 120.461 50.9196 121.398 45.7161 122.112C43.4541 122.446 41.3212 122.745 38.9547 122.693C37.3027 122.724 35.2883 122.438 33.9083 121.427C33.382 121.016 32.9848 120.57 32.8454 120.054C32.6853 118.437 32.9817 116.973 33.9577 115.464C34.8641 113.697 36.1329 112.247 37.3668 110.669C38.0012 109.944 38.6008 109.09 39.3293 108.201C39.9289 107.348 40.727 106.717 41.4904 105.957C42.1596 105.361 42.6999 104.8 43.3691 104.204C43.2646 103.817 43.1253 103.302 43.0207 102.915C42.7628 102.984 42.5398 103.183 42.2818 103.253C40.933 103.894 39.7828 104.758 38.5036 105.657C37.2244 106.556 35.9452 107.455 34.8995 108.706C33.819 109.828 32.9371 111.174 32.0203 112.39C30.3158 114.787 28.6913 117.994 30.559 120.81C31.0608 121.643 31.8902 122.664 32.8729 123.229C33.8557 123.794 34.9326 124.195 36.0688 124.303C38.5397 124.742 41.0944 124.467 43.5202 124.227C46.7196 123.778 49.9191 123.328 53.1186 122.879C59.3189 121.758 65.5785 120.343 71.6395 118.706C83.9845 115.233 95.8871 110.634 107.312 104.78C118.609 98.9608 129.333 92.0508 139.264 84.2486C141.529 82.3912 144.216 80.5583 145.757 78.0666C146.911 75.6793 147.176 72.5636 145.612 70.3572Z" fill="black"/>
<path d="M86.6642 58.0551C86.5945 57.7972 86.3959 57.5741 86.1972 57.351C86.0334 57.2569 85.8696 57.1628 85.671 56.9397C85.3434 56.7515 84.8869 56.5981 84.5 56.7026C84.2421 56.7723 84.1131 56.8071 83.8204 56.7478C83.4335 56.8523 83.0815 57.0858 82.7295 57.3193C82.6005 57.3541 82.5064 57.5179 82.3774 57.5527C82.1543 57.7514 81.9661 58.079 81.872 58.2428C81.6837 58.5704 81.6245 58.8631 81.6941 59.121C81.6349 59.4138 81.7394 59.8006 81.938 60.0237C82.0077 60.2816 82.2063 60.5047 82.4049 60.7278C82.5687 60.8219 82.7325 60.916 82.9312 61.1391C83.2587 61.3273 83.7153 61.4807 84.1022 61.3762C84.3601 61.3065 84.489 61.2717 84.7818 61.331C85.1686 61.2265 85.5207 60.993 85.8727 60.7595C86.0017 60.7247 86.0958 60.5609 86.2247 60.5261C86.4478 60.3274 86.6361 59.9999 86.7302 59.8361C86.9184 59.5085 86.9777 59.2157 86.908 58.9578C86.8035 58.5709 86.7338 58.313 86.6642 58.0551Z" fill="#E6EAEC"/>
<path d="M78.451 77.8461C75.614 78.6125 76.8333 83.126 79.6703 82.3596C82.6363 81.5583 81.417 77.0448 78.451 77.8461Z" fill="#E6EAEC"/>
<path d="M102.224 66.9958C99.7742 67.6577 100.784 71.3974 103.235 70.7355C105.72 70.2026 104.675 66.3338 102.224 66.9958Z" fill="#E6EAEC"/>
<path d="M107.301 85.2734C106.998 84.6635 106.437 84.1232 105.816 83.8757C105.161 83.4992 104.576 83.3806 103.861 83.2969C103.182 83.3421 102.408 83.5512 101.798 83.8543L101.669 83.8891C101.059 84.1923 100.519 84.7533 100.142 85.4085C99.7657 86.0637 99.5182 86.684 99.5983 87.4926C99.6783 88.3012 99.8525 88.946 100.19 89.6849C100.494 90.2948 101.055 90.8351 101.71 91.2116C102.365 91.588 102.985 91.8356 103.794 91.7555C104.603 91.6754 105.247 91.5013 105.986 91.1633C106.596 90.8601 107.136 90.2991 107.513 89.6439C107.889 88.9887 108.137 88.3684 108.057 87.5598L108.022 87.4308C107.813 86.6571 107.604 85.8834 107.301 85.2734Z" fill="#E6EAEC"/>
<path d="M84.9623 98.3644C84.7288 98.0124 84.3664 97.6952 84.0388 97.5069C83.875 97.4128 83.5823 97.3535 83.4185 97.2594C82.9619 97.106 82.5402 97.0816 82.0244 97.2209C81.6375 97.3254 81.3796 97.3951 81.1914 97.7227C80.9683 97.9213 80.7452 98.1199 80.557 98.4475C80.3687 98.7751 80.3095 99.0679 80.2502 99.3606C80.1909 99.6534 80.1665 100.075 80.2361 100.333C80.3058 100.591 80.3406 100.72 80.5393 100.943C80.7727 101.295 81.1352 101.612 81.4628 101.8C81.6265 101.895 81.9193 101.954 82.0831 102.048C82.5396 102.201 82.9613 102.226 83.4772 102.086C83.864 101.982 84.122 101.912 84.3102 101.585C84.5333 101.386 84.7563 101.187 84.9446 100.86C85.1328 100.532 85.1921 100.239 85.2514 99.9467C85.3107 99.654 85.241 99.3961 85.1365 99.0092C85.1017 98.8802 85.032 98.6223 84.9623 98.3644Z" fill="#E6EAEC"/>
<path d="M119.713 102.537C113.136 104.313 115.888 114.501 122.465 112.724C129.042 110.947 126.29 100.76 119.713 102.537Z" fill="#E6EAEC"/>
<path d="M102.965 114.81C102.732 114.458 102.533 114.235 102.205 114.047C102.042 113.953 101.878 113.859 101.714 113.764C101.292 113.74 101 113.681 100.613 113.785C100.355 113.855 100.097 113.925 99.8739 114.123C99.6508 114.322 99.4277 114.521 99.3336 114.684C99.1105 114.883 99.0512 115.176 99.1209 115.434C99.0616 115.726 99.0023 116.019 99.201 116.242C99.2358 116.371 99.3055 116.629 99.4693 116.723C99.7028 117.075 99.9014 117.298 100.229 117.487C100.393 117.581 100.557 117.675 100.72 117.769C101.142 117.793 101.435 117.853 101.822 117.748C102.08 117.678 102.338 117.609 102.561 117.41C102.784 117.211 103.007 117.013 103.101 116.849C103.324 116.65 103.383 116.358 103.314 116.1C103.373 115.807 103.432 115.514 103.233 115.291C103.164 115.033 103.129 114.904 102.965 114.81Z" fill="#E6EAEC"/>
<path d="M122.744 79.4403C122.476 78.9593 122.113 78.6421 121.622 78.3598C121.458 78.2656 121.165 78.2064 121.002 78.1122C120.545 77.9588 119.994 77.9692 119.479 78.1086C119.092 78.2131 118.74 78.4466 118.517 78.6452C118.165 78.8787 117.942 79.0773 117.788 79.5338C117.6 79.8614 117.412 80.189 117.387 80.6107C117.363 81.0324 117.304 81.3252 117.408 81.7121C117.478 81.97 117.676 82.193 117.746 82.451C118.014 82.9319 118.377 83.2491 118.868 83.5315C119.032 83.6256 119.325 83.6849 119.488 83.779C119.945 83.9324 120.496 83.922 121.011 83.7827C121.398 83.6782 121.75 83.4447 121.973 83.2461C122.326 83.0126 122.549 82.814 122.702 82.3574C122.89 82.0298 123.078 81.7022 123.103 81.2805C123.127 80.8588 123.023 80.472 122.918 80.0851C122.849 79.8272 122.814 79.6982 122.744 79.4403Z" fill="#E6EAEC"/>
<path d="M65.6773 79.2214C63.743 79.7439 64.5442 82.7099 66.4786 82.1874C68.4129 81.6648 67.6117 78.6988 65.6773 79.2214Z" fill="#E6EAEC"/>
<path d="M90.0081 70.4349C89.8095 70.2118 89.6108 69.9887 89.4471 69.8946C89.2833 69.8005 89.1543 69.8353 89.1195 69.7064C88.8267 69.6471 88.534 69.5878 88.276 69.6575C88.0181 69.7271 87.8892 69.762 87.6661 69.9606C87.4082 70.0303 87.3141 70.1941 87.2548 70.4868C87.1607 70.6506 87.0665 70.8144 87.0073 71.1072C86.9131 71.271 86.9828 71.5289 87.0525 71.7868C87.0873 71.9157 87.1222 72.0447 87.157 72.1737C87.3556 72.3967 87.5543 72.6198 87.7181 72.7139L88.0457 72.9022C88.3384 72.9615 88.6312 73.0207 88.8891 72.9511C89.147 72.8814 89.2759 72.8465 89.499 72.6479C89.7569 72.5782 89.851 72.4144 89.9103 72.1217C90.0044 71.9579 90.0986 71.7941 90.1578 71.5014C90.252 71.3376 90.1823 71.0797 90.1126 70.8217C90.0778 70.6928 90.0429 70.5638 90.0081 70.4349Z" fill="#E6EAEC"/>
<path d="M97.3034 96.4145C94.9822 97.0415 95.9228 100.523 98.244 99.8963C100.6 99.3982 99.6246 95.7874 97.3034 96.4145Z" fill="#E6EAEC"/>
<path d="M84.3799 125.919C83.8781 125.086 83.1184 124.322 82.2995 123.852C81.8429 123.698 81.3515 123.416 80.895 123.263C79.8529 122.991 78.8806 122.977 77.8489 123.255C77.0752 123.464 76.3363 123.802 75.796 124.363C75.2209 124.795 74.6806 125.356 74.3041 126.012C73.9277 126.667 73.715 127.416 73.6312 128.131C73.4186 128.88 73.4986 129.688 73.7076 130.462C73.976 130.943 74.1153 131.459 74.3836 131.94C74.8854 132.773 75.6451 133.536 76.464 134.007C76.9206 134.16 77.412 134.443 77.8685 134.596C78.9106 134.868 79.8829 134.882 80.9146 134.603C81.6883 134.394 82.4272 134.056 82.9675 133.495C83.5426 133.063 84.0829 132.502 84.4594 131.847C84.8358 131.192 85.0485 130.443 85.1323 129.728C85.3449 128.979 85.2649 128.17 85.0559 127.397C84.7875 126.916 84.5192 126.435 84.3799 125.919Z" fill="#E6EAEC"/>
<path d="M30.4862 87.7596L25.5755 88.5328L23.4559 92.9796L21.2991 88.5811L16.2979 87.995L19.7626 84.43L18.8953 79.683L23.3422 81.8026L27.706 79.5168L26.9561 84.4239L30.4862 87.7596Z" fill="black"/>
<path d="M107.086 32.7508L101.601 28.8363L95.4564 31.1881L97.3462 24.8662L93.1645 19.6309L99.9014 19.4714L103.523 13.9268L105.652 20.2701L112.068 21.9961L106.798 26.0488L107.086 32.7508Z" fill="black"/>
<path d="M155.676 109.149L151.504 109.584L149.562 113.153L147.837 109.329L143.774 108.628L146.897 105.847L146.333 101.71L149.936 103.781L153.76 102.056L152.895 106.026L155.676 109.149Z" fill="black"/>
</g>
<defs>
<clipPath id="clip0_4868_4267">
<rect width="133.58" height="133.58" fill="white" transform="translate(0 34.8369) rotate(-15.1174)"/>
</clipPath>
</defs>
</svg>
