<svg width="163" height="108" viewBox="0 0 163 108" fill="none" xmlns="http://www.w3.org/2000/svg">
<path d="M156.31 17.4336C151.698 19.0319 147.078 20.6302 142.465 22.2285C141.813 22.4544 142.09 23.6444 142.75 23.4099C147.363 21.8116 151.983 20.2133 156.595 18.615C157.24 18.3978 156.963 17.2078 156.31 17.4336Z" fill="#00477C"/>
<path d="M142.337 22.0893C131.38 17.7808 120.415 13.4724 109.457 9.16398C108.872 8.93814 108.55 9.92839 109.052 10.2845C117.812 16.4692 126.565 22.6626 135.325 28.8472C135.91 29.2642 136.442 28.1958 135.857 27.7875C127.097 21.6028 118.345 15.4095 109.585 9.22479C109.45 9.5983 109.315 9.97183 109.18 10.3453C120.137 14.6538 131.102 18.9622 142.06 23.2706C142.705 23.5312 142.982 22.3412 142.337 22.0893Z" fill="#00477C"/>
<path d="M156.963 15.731C137.628 11.1012 118.218 6.89698 98.7483 3.11842C98.0808 2.98812 97.7958 4.16945 98.4633 4.29975C117.933 8.07831 137.343 12.2825 156.678 16.9123C157.353 17.0687 157.638 15.8873 156.963 15.731Z" fill="#00477C"/>
<path d="M135.655 28.2477C130.308 28.6473 124.975 29.2466 119.658 30.0458C118.99 30.15 118.983 31.3748 119.658 31.2705C124.975 30.4714 130.3 29.872 135.655 29.4725C136.33 29.4204 136.338 28.1956 135.655 28.2477Z" fill="#00477C"/>
<path d="M97.0528 4.39494C104.643 14.2887 112.675 23.6786 121.158 32.5561C121.66 33.086 122.418 32.2173 121.908 31.6875C113.425 22.8187 105.393 13.4288 97.8028 3.5263C97.3528 2.93563 96.6028 3.80426 97.0528 4.39494Z" fill="#00477C"/>
<path d="M143.191 23.8526C143.206 29.5595 143.484 35.2404 144.046 40.9126C144.121 41.6857 145.186 41.6944 145.104 40.9126C144.549 35.2404 144.264 29.5595 144.249 23.8526C144.249 23.0622 143.191 23.0622 143.191 23.8526Z" fill="#00477C"/>
<path d="M135.811 28.6303C138.406 32.9301 140.994 37.2385 143.589 41.5383C143.979 42.1811 144.894 41.573 144.504 40.9215C141.909 36.6218 139.321 32.3134 136.726 28.0136C136.344 27.3708 135.421 27.9789 135.811 28.6303Z" fill="#00477C"/>
<path d="M144.107 40.774C139.435 36.5872 134.627 32.6262 129.677 28.8997C129.1 28.4654 128.575 29.5339 129.145 29.9595C134.02 33.6338 138.76 37.5253 143.365 41.6426C143.897 42.1204 144.647 41.2604 144.107 40.774Z" fill="#00477C"/>
<path d="M1.21855 107.302C-0.191451 93.3086 5.35853 79.2019 13.901 69.1779C22.4435 59.1538 33.701 52.778 45.221 48.2785C49.391 46.6542 53.666 45.2209 57.461 42.6324C64.496 37.8375 69.2135 29.4465 72.206 20.6559C74.4635 14.0195 74.951 4.54271 69.326 1.64147C65.396 -0.382454 60.5585 2.6404 58.6535 7.10519C56.756 11.57 57.1835 16.9121 58.361 21.6983C61.661 35.1187 70.3835 46.1243 80.6285 53.4556C90.881 60.7869 102.619 64.826 114.364 67.9531C122.284 70.0639 130.398 71.8099 138.491 70.9846C146.583 70.1594 154.743 66.4938 160.016 59.3276C161.043 57.929 162.004 56.1918 161.711 54.385C161.479 52.9257 160.496 51.8139 159.559 50.8062C156.161 47.1319 152.756 43.4489 149.358 39.7746" stroke="#00477C" stroke-width="0.857031" stroke-miterlimit="10" stroke-linecap="round" stroke-dasharray="5.56 5.56"/>
<path d="M119.704 13.6549C120.499 15.4096 121.286 17.1555 122.081 18.9102C122.396 19.6137 123.311 18.9883 122.996 18.2934C122.201 16.5388 121.414 14.7928 120.619 13.0382C120.304 12.3346 119.389 12.96 119.704 13.6549Z" fill="#00477C"/>
<path d="M123.723 14.0721C124.811 16.956 125.898 19.8312 126.986 22.715C127.256 23.436 128.171 22.8106 127.901 22.0983C126.813 19.2145 125.726 16.3393 124.638 13.4554C124.368 12.7258 123.453 13.3512 123.723 14.0721Z" fill="#00477C"/>
<path d="M129.932 18.2677C130.96 20.8649 131.98 23.4708 133.007 26.0681C133.292 26.789 134.207 26.1636 133.922 25.4513C132.895 22.8541 131.875 20.2482 130.847 17.651C130.562 16.93 129.647 17.5554 129.932 18.2677Z" fill="#00477C"/>
<path d="M134.771 20.4477C135.889 24.3478 137.089 28.2132 138.364 32.0439C138.604 32.7736 139.631 32.4609 139.384 31.7138C138.109 27.8832 136.909 24.0177 135.791 20.1176C135.581 19.3705 134.554 19.6919 134.771 20.4477Z" fill="#00477C"/>
<path d="M138.707 23.6269C139.742 27.2752 140.769 30.9235 141.804 34.5718C142.014 35.3188 143.042 34.9974 142.824 34.2417C141.789 30.5934 140.762 26.9452 139.727 23.2969C139.517 22.5586 138.489 22.8799 138.707 23.6269Z" fill="#00477C"/>
<path d="M142.375 24.0346C142.848 25.9109 143.155 27.8132 143.283 29.7676C143.335 30.5494 144.393 30.558 144.34 29.7676C144.205 27.7089 143.89 25.6937 143.395 23.7132C143.208 22.9575 142.18 23.2789 142.375 24.0346Z" fill="#00477C"/>
</svg>
