<svg width="69" height="62" viewBox="0 0 69 62" fill="none" xmlns="http://www.w3.org/2000/svg">
<path d="M47.1107 21.9729C43.6442 20.9962 31.0855 0.367853 29.1619 2.9295C27.2383 5.49114 22.9642 24.0948 20.864 24.3963C18.7639 24.6979 1.75855 26.5676 3.11454 28.2897C4.47052 30.0119 21.7385 39.4456 22.0705 42.2732C22.4026 45.1008 20.7774 59.3963 22.8777 59.0948C24.9779 58.7933 35.1739 44.2006 38.0192 43.9396C40.8644 43.6785 53.6151 56.3773 54.7526 54.5183C55.89 52.6593 49.4885 40.401 50.0671 38.2536C50.6458 36.1062 68.0078 20.1002 65.3281 20.485C62.6485 20.8697 50.5771 22.9497 47.1107 21.9729Z" stroke="#F97316" stroke-width="5" stroke-linecap="round"/>
</svg>
