<svg width="66" height="64" viewBox="0 0 66 64" fill="none" xmlns="http://www.w3.org/2000/svg">
<path d="M45.8296 27.697C43.0487 25.4087 39.8457 1.47151 37.0544 3.04334C34.263 4.61517 22.8684 19.9294 20.8243 19.3609C18.7802 18.7924 2.45859 13.6657 3.00755 15.7878C3.5565 17.9099 15.5729 33.4914 14.7398 36.2138C13.9068 38.9362 6.66995 51.3713 8.71414 51.9398C10.7583 52.5083 25.9619 43.2479 28.6719 44.1531C31.3819 45.0583 37.9494 61.8126 39.7385 60.568C41.5275 59.3234 40.596 45.5255 41.9893 43.7922C43.3827 42.0588 65.7156 34.3861 63.1075 33.6607C60.4994 32.9354 48.6106 29.9853 45.8296 27.697Z" stroke="#E879F9" stroke-width="5" stroke-linecap="round"/>
</svg>
