<svg width="228" height="194" viewBox="0 0 228 194" fill="none" xmlns="http://www.w3.org/2000/svg">
<g opacity="0.5" clip-path="url(#clip0_4763_1147)">
<path d="M71.7609 160.511C70.6579 156.947 66.9243 154.979 63.3603 156.082L60.7467 156.89L54.3315 158.876L58.3025 171.706L67.3313 168.912C70.8952 167.809 72.864 164.075 71.7609 160.511Z" stroke="black" stroke-width="3" stroke-miterlimit="10"/>
<path d="M65.1762 148.49C64.0731 144.926 60.3395 142.957 56.7755 144.06L50.3604 146.046L54.3313 158.876L60.7465 156.891C64.3105 155.788 66.2792 152.054 65.1762 148.49Z" stroke="black" stroke-width="3" stroke-miterlimit="10"/>
<path d="M44.3346 190.089L95.6558 174.205L79.7719 122.884L28.4507 138.768L44.3346 190.089ZM54.3313 158.876L50.3603 146.046L56.7755 144.06C60.3395 142.957 64.0731 144.926 65.1761 148.49C66.2792 152.054 64.3104 155.788 60.7465 156.891L63.3601 156.082C66.924 154.979 70.6577 156.947 71.7607 160.511C72.8638 164.075 70.895 167.809 67.331 168.912L58.3023 171.706L54.3313 158.876Z" stroke="black" stroke-width="3" stroke-miterlimit="10"/>
<path d="M132.894 140.159C134.218 144.436 131.839 148.947 127.562 150.271C123.286 151.594 118.774 149.215 117.45 144.939L114.288 134.722C112.965 130.445 115.344 125.934 119.62 124.61C123.897 123.286 128.409 125.665 129.732 129.942M89.9888 119.722L105.873 171.043L157.194 155.159L141.31 103.838L89.9888 119.722Z" stroke="black" stroke-width="3" stroke-miterlimit="10"/>
<path d="M72.4187 71.7858L67.1916 73.4036L67.8728 92.8498L82.8415 88.217L72.4187 71.7858Z" stroke="black" stroke-width="3" stroke-miterlimit="10"/>
<path d="M67.9919 92.8127L68.3028 103.912L67.8731 92.8495L82.8418 88.2167M67.9919 92.8127L67.7543 92.8863M67.9919 92.8127L67.3107 73.3665L72.419 71.7855L82.8418 88.2167M82.8418 88.2167L83.0794 88.1431M82.8418 88.2167L88.8551 97.551M91.4951 51.8221L40.1738 67.7061L56.0577 119.027L107.379 103.143L91.4951 51.8221Z" stroke="black" stroke-width="3" stroke-miterlimit="10"/>
</g>
<g clip-path="url(#clip1_4763_1147)">
<path d="M124.659 115.239C125.494 111.205 126.328 107.172 127.2 103.257C132.501 80.0066 137.802 56.7562 143.14 33.6246C143.485 32.216 143.867 30.9262 144.249 29.6364C145.383 29.9362 146.48 30.1173 147.615 30.4171C148.356 30.7085 149.179 30.8442 149.92 31.1356C149.575 32.5442 149.266 34.0716 148.921 35.4802C147.968 39.5504 146.978 43.5019 146.025 47.5721C145.38 50.115 144.89 52.7398 144.364 55.2459C143.103 60.8435 141.841 66.4412 140.542 71.92C139.108 78.2219 137.674 84.5239 136.24 90.8258C135.332 94.6217 134.461 98.5364 133.671 102.295C133.026 104.838 132.537 107.463 131.892 110.006C131.584 111.533 131.275 113.061 131.004 114.707C130.099 114.727 129.111 114.902 128.206 114.922C127.027 114.896 125.949 115.621 124.659 115.239Z" fill="#45AAB8"/>
<path d="M161.664 33.7495C158.841 46.079 156.055 58.5273 153.149 71.0124C149.755 86.1224 146.36 101.232 142.966 116.342C142.957 116.735 142.793 117.047 142.629 117.358C141.065 116.931 139.529 117.015 138.03 117.219C137.874 117.137 137.874 117.137 137.719 117.055C137.326 117.046 136.814 117.075 136.42 117.066C136.585 116.755 136.667 116.6 136.831 116.288C137.312 114.057 137.792 111.825 138.31 109.712C139.227 105.523 140.299 101.416 141.215 97.227C142.177 92.7636 143.176 88.419 144.137 83.9556C144.791 81.0196 145.563 78.0468 146.217 75.1108C147.47 69.9063 148.567 64.6198 149.702 59.4521C150.782 54.952 151.826 50.333 152.907 45.8328C153.769 42.3113 154.513 38.8266 155.221 35.223C155.475 34.3632 155.574 33.4213 155.673 32.4794C156.615 32.5784 157.594 32.7962 158.536 32.8952C159.514 33.113 160.649 33.4129 161.664 33.7495Z" fill="#047B8E"/>
<path d="M164.869 20.13C164.824 20.4044 164.824 20.4044 164.742 20.56C164.088 23.496 163.279 26.3499 162.626 29.2859C161.647 29.0681 160.513 28.7683 159.534 28.5505C158.556 28.3326 157.696 28.078 156.68 27.7414C156.762 27.5859 157 27.5123 156.963 27.3935C157.699 24.302 158.315 21.2472 158.932 18.1924C160.46 18.5007 161.831 18.727 163.359 19.0354C163.944 19.2447 164.366 19.7651 164.869 20.13Z" fill="#055868"/>
<path d="M145.248 25.2915C145.293 25.0172 145.219 24.7796 145.383 24.4684C146.037 21.5324 146.772 18.4409 147.426 15.5049C147.975 15.5954 148.523 15.6859 148.916 15.6944C149.228 15.8585 149.42 16.0593 149.694 16.1045C150.829 16.4044 151.926 16.5855 153.06 16.8853C152.661 18.9614 152.226 20.9188 151.827 22.9949C151.564 24.2479 151.501 25.3086 151.238 26.5617C150.26 26.3439 149.318 26.2448 148.339 26.027C147.205 25.7272 146.226 25.5093 145.248 25.2915Z" fill="#388691"/>
<path d="M138.03 117.219C139.529 117.016 141.102 117.05 142.629 117.358C142.465 117.669 142.338 118.099 142.174 118.41C139.549 123.389 136.887 128.248 134.106 133.144C133.04 135.166 131.699 137.144 130.633 139.166C130.477 139.084 130.441 138.965 130.285 138.883C130.613 138.261 130.868 137.401 131.114 136.934C132.418 134.838 132.944 132.332 133.818 130.109C134.774 127.73 135.611 125.388 136.449 123.046C137.195 121.253 137.905 119.341 138.533 117.584C138.341 117.384 138.186 117.302 138.03 117.219Z" fill="#E9C293"/>
<path d="M124.659 115.239C125.949 115.621 127.027 114.897 128.289 114.767C128.181 116.102 128.11 117.556 128.003 118.891C127.796 121.168 127.672 123.289 127.465 125.566C127.259 127.843 127.208 130.202 127.157 132.561C127.114 134.527 127.072 136.493 127.066 138.577C126.828 138.651 126.673 138.569 126.435 138.642C126.232 137.143 126.028 135.644 125.943 134.108C125.485 128.001 125.183 121.977 124.725 115.87C124.807 115.714 124.733 115.477 124.659 115.239Z" fill="#FCE2C0"/>
<path d="M126.435 138.642C126.673 138.569 126.828 138.651 127.066 138.577C127.222 138.659 127.377 138.741 127.533 138.823C128.045 138.795 128.675 138.73 129.224 138.821C129.617 138.829 129.892 138.874 130.285 138.883C130.44 138.965 130.477 139.084 130.633 139.166C130.587 139.44 130.542 139.715 130.46 139.87C129.722 141.27 128.947 142.552 128.209 143.952C128.045 144.263 127.569 144.41 127.213 144.52C127.094 144.557 126.709 144.155 126.636 143.918C126.633 142.226 126.594 140.416 126.435 138.642Z" fill="#454444"/>
<path d="M159.534 28.5511C160.513 28.7689 161.647 29.0687 162.626 29.2865C162.318 30.8139 161.973 32.2225 161.664 33.7499C160.649 33.4133 159.551 33.2323 158.536 32.8957C158.844 31.3683 159.189 29.9597 159.534 28.5511Z" fill="#BBBDBE"/>
<path d="M145.247 25.2923C146.226 25.5101 147.36 25.8099 148.339 26.0278C148.149 27.5184 147.804 28.927 147.615 30.4176C146.48 30.1178 145.383 29.9367 144.249 29.6369C144.557 28.1095 144.902 26.7009 145.247 25.2923Z" fill="#E4E6E6"/>
<path d="M152.905 16.8032C151.77 16.5034 150.673 16.3223 149.539 16.0225C149.264 15.9772 149.072 15.7764 148.761 15.6123C149.392 15.5473 150.022 15.4822 150.69 15.536C155.481 15.8755 159.936 17.2305 164.219 19.2897C164.649 19.417 165.115 19.6631 164.632 20.2034C164.128 19.8385 163.743 19.4368 163.277 19.1907C161.868 18.8456 160.377 18.6561 158.85 18.3477C156.975 17.7565 155.017 17.3209 152.905 16.8032Z" fill="#104D58"/>
<path d="M164.742 20.5599C164.705 20.4411 164.824 20.4043 164.787 20.2855C164.787 20.2855 164.705 20.4411 164.742 20.5599Z" fill="#104D58"/>
<path d="M155.637 32.3607C155.538 33.3026 155.402 34.1257 155.184 35.1044C154.44 38.5891 153.614 42.2294 152.87 45.7141C151.79 50.2143 150.746 54.8333 149.665 59.3335C148.412 64.5379 147.314 69.8244 146.18 74.9921C145.527 77.9281 144.754 80.9009 144.101 83.8369C143.139 88.3003 142.177 92.7637 141.179 97.1083C140.262 101.297 139.227 105.523 138.274 109.593C137.793 111.825 137.312 114.057 136.794 116.17C136.749 116.444 136.585 116.755 136.384 116.948C136.228 116.866 135.991 116.939 135.835 116.857C134.919 115.579 133.346 115.545 132.019 115.044C131.983 114.925 131.983 114.925 131.864 114.962C131.553 114.798 131.242 114.634 131.049 114.433C131.358 112.905 131.629 111.259 131.938 109.732C132.427 107.107 133.072 104.564 133.717 102.021C134.625 98.2255 135.496 94.3108 136.285 90.5517C137.72 84.2497 139.154 77.9478 140.588 71.6459C141.85 66.0482 143.111 60.4506 144.41 54.9717C145.055 52.4289 145.544 49.804 146.07 47.298C147.024 43.2277 148.014 39.2763 148.967 35.2061C149.312 33.7975 149.62 32.2701 149.966 30.8615C150.944 31.0793 152.042 31.2603 153.02 31.4781C153.917 31.8515 154.777 32.1061 155.637 32.3607Z" fill="#1A93A5"/>
<path d="M131.086 114.552C131.397 114.716 131.708 114.88 131.9 115.081C131.728 115.785 131.637 116.334 131.465 117.038C131.312 118.648 131.278 120.22 130.97 121.748C130.608 123.943 130.209 126.019 129.81 128.095C129.674 128.918 129.538 129.741 129.402 130.564C129.23 131.269 129.057 131.973 128.885 132.677C128.831 133.345 128.933 134.094 128.76 134.799C128.415 136.207 127.914 137.534 127.569 138.942C127.414 138.86 127.258 138.778 127.103 138.696C127.145 136.731 127.151 134.646 127.193 132.68C127.244 130.321 127.451 128.044 127.502 125.685C127.59 123.445 127.833 121.287 128.039 119.01C128.147 117.675 128.218 116.221 128.325 114.886C129.193 114.747 130.099 114.727 131.086 114.552Z" fill="#FDD5A5"/>
<path d="M152.938 31.6338C151.959 31.416 150.862 31.235 149.883 31.0171C149.142 30.7258 148.319 30.59 147.578 30.2986C147.767 28.808 148.113 27.3994 148.302 25.9088C149.281 26.1266 150.223 26.2256 151.201 26.4434C152.061 26.698 153.04 26.9158 153.9 27.1704C153.591 28.6978 153.246 30.1064 152.938 31.6338Z" fill="#DBDDDE"/>
<path d="M135.872 116.976C136.027 117.058 136.265 116.985 136.421 117.067C136.814 117.075 137.326 117.047 137.719 117.055C137.875 117.137 137.875 117.137 138.03 117.219C138.186 117.302 138.497 117.466 138.689 117.666C137.942 119.46 137.196 121.253 136.604 123.128C135.767 125.47 134.967 127.931 133.974 130.191C132.981 132.451 132.573 134.92 131.269 137.016C130.905 137.52 130.769 138.343 130.441 138.965C130.047 138.957 129.773 138.911 129.38 138.903C130.144 136.323 130.944 133.862 131.708 131.283C132.344 129.133 132.944 126.865 133.425 124.633C134.144 122.328 134.706 119.94 135.425 117.635C135.47 117.361 135.671 117.169 135.872 116.976Z" fill="#F1C793"/>
<path d="M152.938 31.6339C153.283 30.2253 153.592 28.6979 153.937 27.2893C154.879 27.3884 155.738 27.6429 156.68 27.742C157.659 27.9598 158.519 28.2144 159.534 28.551C159.189 29.9596 158.881 31.487 158.536 32.8956C157.594 32.7966 156.615 32.5788 155.673 32.4797C154.777 32.1064 153.917 31.8518 152.938 31.6339Z" fill="#CFD1D2"/>
<path d="M138.03 117.219C137.874 117.137 137.874 117.137 137.719 117.055C137.756 117.173 137.874 117.137 138.03 117.219Z" fill="#E9C293"/>
<path d="M156.68 27.7417C155.739 27.6426 154.879 27.388 153.937 27.289C153.077 27.0344 152.098 26.8166 151.238 26.562C151.383 25.3458 151.527 24.1295 151.827 22.9953C152.226 20.9191 152.661 18.9618 153.06 16.8857C155.054 17.4401 157.13 17.839 159.124 18.3934C158.508 21.4482 157.772 24.5398 157.156 27.5946C157.037 27.6313 156.799 27.7049 156.68 27.7417Z" fill="#14707F"/>
<path d="M135.872 116.976C135.671 117.168 135.47 117.361 135.388 117.516C134.669 119.821 133.951 122.127 133.388 124.514C132.752 126.664 132.271 128.895 131.671 131.164C130.907 133.743 130.107 136.204 129.343 138.784C128.831 138.812 128.2 138.877 127.651 138.787C127.997 137.378 128.497 136.051 128.842 134.643C129.015 133.939 128.913 133.189 128.967 132.521C129.021 131.854 129.312 131.113 129.485 130.409C129.62 129.585 129.756 128.762 129.892 127.939C130.291 125.863 130.772 123.631 131.052 121.592C131.36 120.065 131.394 118.492 131.547 116.883C131.601 116.215 131.81 115.63 131.982 114.925L132.138 115.007C133.419 115.782 134.955 115.697 135.872 116.976Z" fill="#FCD19C"/>
<path d="M132.056 115.163L131.9 115.081C132.019 115.044 132.056 115.163 132.056 115.163Z" fill="#FDD5A5"/>
</g>
<defs>
<clipPath id="clip0_4763_1147">
<rect width="124.359" height="124.359" fill="white" transform="translate(5.51562 75.1787) rotate(-17.1973)"/>
</clipPath>
<clipPath id="clip1_4763_1147">
<rect width="124.359" height="124.359" fill="white" transform="translate(66.5264 36.7686) rotate(-17.1973)"/>
</clipPath>
</defs>
</svg>
