<svg width="63" height="97" viewBox="0 0 63 97" fill="none" xmlns="http://www.w3.org/2000/svg">
<path d="M23.4302 91.5624C22.3618 91.282 21.2684 91.9208 20.988 92.9891C20.7075 94.0575 21.3463 95.1509 22.4147 95.4314L23.4302 91.5624ZM52.5518 81.5894L54.3853 82.3884L52.5518 81.5894ZM38.3938 56.3321L38.5352 54.3371L38.3938 56.3321ZM41.2492 65.2524L41.2036 67.2519L41.2492 65.2524ZM59.576 37.0079L61.4792 36.3932L59.576 37.0079ZM1.41499 14.0731C0.659924 14.8793 0.701366 16.1449 1.50756 16.9L14.6452 29.2045C15.4514 29.9596 16.7171 29.9181 17.4722 29.1119C18.2272 28.3057 18.1858 27.0401 17.3796 26.285L5.70164 15.3477L16.639 3.66972C17.3941 2.86353 17.3526 1.59788 16.5464 0.84281C15.7402 0.0877451 14.4746 0.129186 13.7195 0.935383L1.41499 14.0731ZM22.4147 95.4314C29.7288 97.3511 36.7814 96.2024 42.4381 93.5633C48.0462 90.9469 52.4763 86.7694 54.3853 82.3884L50.7183 80.7905C49.295 84.0569 45.7172 87.6196 40.747 89.9384C35.8254 92.2345 29.7295 93.2158 23.4302 91.5624L22.4147 95.4314ZM54.3853 82.3884C56.6314 77.2335 56.0262 70.5119 53.3295 65.0291C50.6104 59.5008 45.5566 54.835 38.5352 54.3371L38.2523 58.3271C43.4754 58.6974 47.4611 62.1609 49.7401 66.7945C52.0416 71.4737 52.3932 76.9467 50.7183 80.7905L54.3853 82.3884ZM38.5352 54.3371C35.8485 54.1466 33.5824 54.6192 32.0159 55.8078C30.3444 57.076 29.6992 59.0062 30.1775 60.9253C31.0699 64.5057 35.4019 67.1195 41.2036 67.2519L41.2948 63.2529C36.2481 63.1377 34.3054 60.9476 34.0588 59.9579C33.9676 59.592 34.0366 59.2956 34.4337 58.9944C34.9356 58.6136 36.0921 58.1739 38.2523 58.3271L38.5352 54.3371ZM41.2036 67.2519C47.3592 67.3923 53.6439 63.3733 57.7223 57.7165C61.8466 51.9961 64.0071 44.2204 61.4792 36.3932L57.6728 37.6226C59.7319 43.9984 58.0187 50.4657 54.4777 55.3772C50.8908 60.3522 45.7186 63.3539 41.2948 63.2529L41.2036 67.2519ZM61.4792 36.3932C59.7192 30.9437 55.7894 26.8 50.9083 23.6695C46.0347 20.5437 40.0992 18.351 34.0744 16.8184C22.0282 13.7539 9.23031 13.231 2.80927 13.4413L2.94019 17.4392C9.09972 17.2375 21.5034 17.7478 33.0882 20.6949C38.8788 22.168 44.3662 24.2256 48.7488 27.0365C53.1239 29.8425 56.2837 33.3216 57.6728 37.6226L61.4792 36.3932Z" fill="#704FE6"/>
</svg>
