<svg width="415" height="154" viewBox="0 0 415 154" fill="none" xmlns="http://www.w3.org/2000/svg">
<g opacity="0.5">
<path d="M413.122 88.5973C413.272 88.596 413.449 88.6946 413.525 88.8442C413.627 89.0435 413.579 89.2942 413.38 89.4211L351.955 130.665L340.657 117.722C340.53 117.573 340.479 117.398 340.527 117.223C340.576 117.047 340.7 116.896 340.875 116.819L412.972 88.6487C413.022 88.6233 413.072 88.5978 413.122 88.5973ZM352.097 129.662L410.63 90.3715L341.407 117.415L352.097 129.662Z" fill="#EA580C"/>
<path d="M412.695 88.4524C412.921 88.4504 413.148 88.6236 413.175 88.8487C413.202 89.0987 413.054 89.3253 412.828 89.3774L334.374 110.319L319.953 92.9734L412.695 88.4524ZM334.642 109.466L410.17 89.3256L321.488 93.6607L334.642 109.466Z" fill="#EA580C"/>
<path d="M340.656 117.174L341.408 117.163L341.276 108.177L340.524 108.188L340.656 117.174Z" fill="#EA580C"/>
<path d="M338.561 87.8011L412.692 88.4505L412.698 89.2013L339.345 88.5702L339.529 92.3486L338.777 92.3803L338.561 87.8011Z" fill="#EA580C"/>
<path d="M396.826 95.4934L401.044 92.2637L400.891 92.065L396.673 95.2948L396.826 95.4934Z" fill="#EA580C"/>
<path d="M391.338 97.6133L395.639 93.8916L395.475 93.7025L391.174 97.4243L391.338 97.6133Z" fill="#EA580C"/>
<path d="M385.353 99.9591L389.76 95.2658L389.577 95.0945L385.17 99.7879L385.353 99.9591Z" fill="#EA580C"/>
<path d="M379.13 102.366L383.857 96.8168L383.666 96.6547L378.939 102.204L379.13 102.366Z" fill="#EA580C"/>
<path d="M373.209 104.69L377.898 98.4067L377.697 98.2572L373.008 104.541L373.209 104.69Z" fill="#EA580C"/>
<path d="M366.586 107.303L371.369 100.167L371.16 100.028L366.377 107.164L366.586 107.303Z" fill="#EA580C"/>
<path d="M359.218 110.158L364.898 101.875L364.691 101.733L359.011 110.017L359.218 110.158Z" fill="#EA580C"/>
<path d="M352.194 112.91L358.449 103.595L358.241 103.456L351.985 112.771L352.194 112.91Z" fill="#EA580C"/>
<path d="M345.328 115.578L352.132 105.274L351.923 105.136L345.119 115.44L345.328 115.578Z" fill="#EA580C"/>
<path d="M341.1 115.001L345.795 106.954L345.579 106.828L340.884 114.875L341.1 115.001Z" fill="#EA580C"/>
<path d="M6.54026 3.57916L7.97376 3.69037L7.10734 8.32061L5.67387 8.2094L6.54026 3.57916ZM216.839 8.30464C219.37 8.34429 221.808 8.60254 224.056 9.0482L223.634 9.95084C221.482 9.53632 219.187 9.30778 216.752 9.26729L216.839 8.30464ZM209.583 8.6482L209.831 9.57693C207.636 9.81298 205.3 10.2061 202.964 10.6921L202.526 9.79605C204.91 9.27865 207.293 8.88508 209.583 8.6482ZM4.80714 12.8076L6.24061 12.9189C5.96737 14.4725 5.69487 15.9951 5.42164 17.5487L3.98844 17.4684C4.26168 15.9148 4.53387 14.3612 4.80714 12.8076ZM230.711 11.0372C232.677 11.8879 234.549 12.9572 236.183 14.1844L235.09 14.7833C233.504 13.6186 231.776 12.61 229.907 11.7884L230.711 11.0372ZM195.76 11.4997L196.34 12.3326C194.245 12.9404 192.102 13.6414 190.008 14.4349L189.333 13.6348C191.426 12.8403 193.617 12.1388 195.76 11.4997ZM183.098 16.1088L183.87 16.8781C181.919 17.7323 179.97 18.6494 178.068 19.5971L177.202 18.8596C179.151 17.8816 181.148 16.964 183.098 16.1088ZM240.276 18.0877C241.386 19.3804 242.354 20.8302 243.227 22.3737L241.893 22.6961C241.067 21.1831 240.101 19.7953 239.039 18.5331L240.276 18.0877ZM3.26545 22.0974L4.69865 22.1777C4.42568 23.7622 4.20097 25.3154 4.02316 26.8052L2.58996 26.7249C2.76777 25.2341 2.99249 23.6819 3.26545 22.0974ZM171.689 21.8556L172.65 22.5604C170.892 23.5687 169.182 24.6385 167.567 25.6765L167.473 25.7393L166.464 25.0969L166.559 25.0342C168.125 23.9656 169.883 22.8954 171.689 21.8556ZM245.225 26.8858C245.715 28.3698 246.063 29.9179 246.268 31.5292L244.836 31.6037C244.632 30.0234 244.284 28.5073 243.842 27.0528L245.225 26.8858ZM161.432 28.4913L162.488 29.1332C160.922 30.2327 159.309 31.3956 157.696 32.5884L156.64 31.9774C158.252 30.7526 159.865 29.5908 161.432 28.4913ZM1.96218 31.384L3.3951 31.4333C3.21811 33.017 3.04088 34.5698 2.91053 36.0602L1.47761 36.0109C1.60793 34.5205 1.78519 32.9677 1.96218 31.384ZM151.895 35.4931L152.999 36.1037C151.529 37.2333 150.01 38.3954 148.398 39.681L147.295 39.1014C148.907 37.8147 150.425 36.6228 151.895 35.4931ZM245.068 36.2243L246.501 36.2427C246.466 37.7322 246.337 39.3155 246.065 40.931L244.631 40.8508C244.904 39.2353 245.033 37.6829 245.068 36.2243ZM1.13691 40.6974L2.56959 40.7157C2.48727 42.2676 2.40626 43.8505 2.37111 45.3711L0.938464 45.3527C0.973576 43.8322 1.05459 42.2493 1.13691 40.6974ZM142.743 42.7403L143.846 43.3199C142.329 44.5428 140.859 45.7344 139.342 46.9573L138.239 46.3777C139.755 45.1548 141.226 43.9323 142.743 42.7403ZM243.717 45.4494L245.15 45.5926C244.967 46.4003 244.736 47.2404 244.504 48.0796C244.319 48.7947 244.087 49.4793 243.902 50.1944L242.515 50.0205C242.747 49.3049 242.933 48.6208 243.118 47.9059C243.349 47.0658 243.533 46.2272 243.717 45.4494ZM2.31689 49.9941C2.33054 51.5449 2.39191 53.1264 2.50126 54.6456L1.06913 54.6891C0.959776 53.1701 0.945883 51.5881 0.884752 50.0377L2.31689 49.9941ZM133.734 50.0162L134.837 50.5959C133.319 51.819 131.85 53.0418 130.333 54.234L129.229 53.6543C130.747 52.4621 132.265 51.2389 133.734 50.0162ZM240.979 54.5321L242.366 54.7371C241.853 56.1686 241.294 57.6626 240.686 59.2811L239.299 59.0451C239.907 57.4576 240.467 55.9947 240.979 54.5321ZM124.725 57.2924L125.828 57.8721C124.216 59.1583 122.698 60.3504 121.228 61.4802L120.125 60.8695C121.595 59.7707 123.113 58.5786 124.725 57.2924ZM2.87634 59.2645C3.03241 60.8142 3.23798 62.3635 3.48975 63.8814L2.05819 63.9871C1.80538 62.4692 1.60054 60.8888 1.44447 59.3391L2.87634 59.2645ZM115.475 64.4158L116.531 65.027C114.918 66.22 113.306 67.4131 111.739 68.5126L110.683 67.8704C112.249 66.7709 113.862 65.6088 115.475 64.4158ZM237.477 63.5593L238.864 63.7953C238.256 65.2897 237.602 66.7845 236.994 68.3099L235.607 68.0739C236.215 66.5485 236.869 65.0537 237.477 63.5593ZM4.3898 68.4647C4.43946 68.7124 4.4891 68.9601 4.53978 69.2079C4.83712 70.5082 5.23016 71.7766 5.67115 72.9825L4.28808 73.2118C3.84685 71.9749 3.45356 70.6755 3.15597 69.3441C3.1053 69.0964 3.0556 68.8487 3.00593 68.6009L4.3898 68.4647ZM105.746 71.2643L106.754 71.9068C105.046 73.0387 103.289 74.1709 101.626 75.2092L100.618 74.5356C102.327 73.4969 104.037 72.3961 105.746 71.2643ZM233.688 72.5579L235.075 72.7939C234.42 74.2887 233.813 75.7831 233.157 77.2779L231.77 77.042C232.378 75.5476 233.033 74.0528 233.688 72.5579ZM7.66782 77.4011C8.49181 78.8519 9.50744 80.2699 10.5695 81.5635L9.33182 82.0087C8.22204 80.6845 7.20616 79.2355 6.33314 77.7231L7.66782 77.4011ZM95.3926 77.6838L96.3535 78.3888C94.5008 79.4289 92.647 80.4689 90.841 81.4154L89.9273 80.6789C91.7334 79.7324 93.5874 78.7234 95.3926 77.6838ZM229.948 81.5562L231.334 81.7921C230.68 83.411 230.119 84.874 229.607 86.3055L228.221 86.1005C228.734 84.669 229.293 83.1751 229.948 81.5562ZM84.2221 83.4901L85.04 84.2584C83.0903 85.1752 81.0453 86.0619 79.0465 86.917L78.276 86.1483C80.3223 85.2927 82.2723 84.4069 84.2221 83.4901ZM14.4709 85.3448C15.9614 86.5416 17.5946 87.644 19.3226 88.6215L18.3743 89.3434C16.55 88.3356 14.8692 87.2027 13.3296 85.9443L14.4709 85.3448ZM72.1838 88.4975L72.8596 89.2982C72.622 89.3932 72.3845 89.4884 72.0981 89.553C70.1936 90.2213 68.2889 90.8584 66.3844 91.4025L65.803 90.5391C67.6611 89.9953 69.566 89.3892 71.422 88.7214C71.7083 88.6568 71.9462 88.5926 72.1838 88.4975ZM25.0751 91.1767C27.0878 91.9035 29.2419 92.505 31.4895 92.9505L31.0681 93.8539C28.7242 93.3782 26.4742 92.7775 24.3662 92.0206L25.0751 91.1767ZM226.589 90.6751L227.976 90.849C227.464 92.4046 227 93.9598 226.584 95.4215L225.15 95.279C225.613 93.7859 226.078 92.2307 226.589 90.6751ZM59.2282 92.2411L59.6665 93.1368C57.33 93.6227 54.9466 94.047 52.657 94.3464L52.4104 93.4178C54.6515 93.1189 56.9403 92.7265 59.2282 92.2411ZM38.3266 93.852C40.5728 94.0184 42.9603 94.0594 45.3478 93.9764L45.4034 94.9065C42.921 94.9904 40.4851 94.9498 38.1439 94.7843L38.3266 93.852ZM224.092 99.8796L225.526 99.991C225.205 101.545 224.932 103.098 224.706 104.589L223.273 104.509C223.498 103.018 223.772 101.464 224.092 99.8796ZM222.837 109.197L224.269 109.215C224.23 110.178 224.191 111.14 224.199 112.039C224.204 112.628 224.21 113.218 224.262 113.838L222.83 113.881C222.825 113.292 222.772 112.672 222.767 112.083C222.759 111.121 222.798 110.159 222.837 109.197ZM335.468 112.487L336.524 113.129C335.052 114.135 333.534 115.265 331.779 116.614L330.675 116.004C332.43 114.654 333.996 113.492 335.468 112.487ZM224.732 118.456C224.986 120.005 225.333 121.522 225.728 123.007L224.297 123.175C223.853 121.659 223.554 120.11 223.301 118.531L224.732 118.456ZM326.027 119.581L327.13 120.161C325.945 121.102 324.712 122.074 323.479 123.078L322.578 123.799L321.475 123.219L322.376 122.498C323.609 121.526 324.842 120.553 326.027 119.581ZM227.295 127.492C227.685 128.419 228.124 129.346 228.561 130.273C228.853 130.797 229.145 131.353 229.435 131.878L228.102 132.231C227.762 131.676 227.471 131.151 227.179 130.595C226.694 129.669 226.255 128.711 225.865 127.784L227.295 127.492ZM316.97 126.827L318.073 127.406C316.366 128.724 314.848 129.916 313.425 130.984L312.321 130.373C313.745 129.337 315.263 128.176 316.97 126.827ZM307.577 133.889L308.633 134.5C306.924 135.725 305.263 136.857 303.649 137.895L302.64 137.252C304.207 136.245 305.869 135.114 307.577 133.889ZM232.432 136.009C233.59 137.363 234.843 138.655 236.238 139.853L235.098 140.421C233.654 139.193 232.352 137.84 231.148 136.485L232.432 136.009ZM297.416 140.431L298.377 141.136C296.476 142.208 294.574 143.217 292.768 144.102L291.902 143.365C293.709 142.48 295.562 141.502 297.416 140.431ZM240.853 143.287C242.582 144.357 244.357 145.334 246.275 146.186L245.47 146.969C243.504 146.086 241.633 145.079 239.856 143.978L240.853 143.287ZM286.003 145.929L286.727 146.73C284.585 147.555 282.394 148.288 280.251 148.865L279.718 148.001C281.767 147.456 283.862 146.755 286.003 145.929ZM252.407 148.397C254.561 148.998 256.809 149.444 259.104 149.703L258.825 150.605C256.483 150.315 254.139 149.87 251.841 149.239L252.407 148.397ZM272.997 149.425L273.292 150.322C270.907 150.685 268.474 150.892 266.086 150.944L266.031 150.014C268.322 149.963 270.66 149.756 272.997 149.425Z" fill="#EA580C"/>
</g>
</svg>
