<svg width="90" height="72" viewBox="0 0 90 72" fill="none" xmlns="http://www.w3.org/2000/svg">
<path d="M73.5578 67.9802C72.6234 68.5691 72.3433 69.8041 72.9322 70.7385C73.5211 71.673 74.7561 71.9531 75.6906 71.3642L73.5578 67.9802ZM86.1605 39.8963L87.9962 39.1026L86.1605 39.8963ZM58.0414 32.9898L56.6807 31.5241L58.0414 32.9898ZM66.5076 36.9958L67.9371 38.3947L66.5076 36.9958ZM58.3911 4.31948L59.2418 2.50944L58.3911 4.31948ZM1.91793 31.1428C1.99119 32.245 2.94404 33.079 4.04618 33.0058L22.0065 31.8118C23.1087 31.7386 23.9427 30.7857 23.8695 29.6836C23.7962 28.5815 22.8434 27.7474 21.7412 27.8207L5.77646 28.8819L4.7152 12.9171C4.64194 11.815 3.68908 10.9809 2.58695 11.0542C1.48481 11.1275 0.650741 12.0803 0.724008 13.1825L1.91793 31.1428ZM75.6906 71.3642C82.0878 67.3323 86.0651 61.396 88.0004 55.4615C89.9191 49.5781 89.8929 43.489 87.9962 39.1026L84.3247 40.6901C85.7388 43.9604 85.898 49.0071 84.1975 54.2213C82.5138 59.3845 79.0676 64.5077 73.5578 67.9802L75.6906 71.3642ZM87.9962 39.1026C85.7646 33.9415 80.4412 29.7932 74.5944 28.0188C68.6992 26.2297 61.8394 26.735 56.6807 31.5241L59.4021 34.4556C63.2396 30.8931 68.4916 30.3468 73.4328 31.8464C78.4226 33.3608 82.6606 36.8416 84.3247 40.6901L87.9962 39.1026ZM56.6807 31.5241C54.7067 33.3566 53.5044 35.3347 53.3028 37.2908C53.0877 39.3778 54.057 41.1673 55.7856 42.1285C59.0105 43.9218 63.8782 42.5423 67.9371 38.3947L65.0782 35.597C61.5475 39.2049 58.621 39.1284 57.7296 38.6327C57.4 38.4494 57.2306 38.1965 57.2817 37.7008C57.3463 37.0741 57.815 35.929 59.4021 34.4556L56.6807 31.5241ZM67.9371 38.3947C72.2435 33.994 73.5996 26.6584 72.2526 19.8159C70.8904 12.8966 66.6859 6.00821 59.2418 2.50944L57.5404 6.12952C63.6041 8.97953 67.1584 14.6477 68.3279 20.5885C69.5126 26.6062 68.173 32.4344 65.0782 35.597L67.9371 38.3947ZM59.2418 2.50944C54.059 0.0734695 48.3484 0.114345 42.7281 1.54204C37.1165 2.96753 31.4613 5.8059 26.2272 9.16029C15.762 15.8671 6.64009 24.8588 2.40862 29.6929L5.41842 32.3275C9.47756 27.6902 18.3212 18.978 28.3855 12.528C33.4161 9.30405 38.6666 6.7008 43.7129 5.41891C48.7505 4.13923 53.4499 4.20695 57.5404 6.12952L59.2418 2.50944Z" fill="#704FE6"/>
</svg>
