<svg width="402" height="151" viewBox="0 0 402 151" fill="none" xmlns="http://www.w3.org/2000/svg">
<g opacity="0.5">
<path d="M0.49687 64.5186C0.350675 64.5205 0.180017 64.4254 0.106774 64.2803C0.00911873 64.087 0.0576114 63.8432 0.25242 63.719L60.2514 23.3872L71.1311 35.9201C71.2531 36.0644 71.302 36.2341 71.2534 36.405C71.2048 36.5759 71.0831 36.7235 70.9126 36.7986L0.643019 64.468C0.594311 64.4929 0.545603 64.5179 0.49687 64.5186ZM60.1061 24.3622L2.9318 62.7842L70.4004 36.2214L60.1061 24.3622Z" fill="#E11D48"/>
<path d="M0.911153 64.6584C0.691859 64.6613 0.472397 64.4938 0.447816 64.2752C0.42321 64.0323 0.569191 63.8115 0.788437 63.76L77.1809 43.0901L91.062 59.8897L0.911153 64.6584ZM76.9137 43.9207L3.3713 63.7995L89.575 59.2279L76.9137 43.9207Z" fill="#E11D48"/>
<path d="M71.1294 36.4534L70.3984 36.4671L70.4581 45.1994L71.189 45.1857L71.1294 36.4534Z" fill="#E11D48"/>
<path d="M72.9405 64.9917L0.913293 64.6603L0.912575 63.9306L72.1845 64.2474L72.0346 60.5761L72.7656 60.5423L72.9405 64.9917Z" fill="#E11D48"/>
<path d="M16.3846 57.7502L12.2614 60.9061L12.4081 61.0986L16.5314 57.9427L16.3846 57.7502Z" fill="#E11D48"/>
<path d="M21.7328 55.6681L17.525 59.3025L17.6831 59.4857L21.891 55.8512L21.7328 55.6681Z" fill="#E11D48"/>
<path d="M27.5659 53.3639L23.2476 57.943L23.4241 58.1087L27.7424 53.5295L27.5659 53.3639Z" fill="#E11D48"/>
<path d="M33.6319 50.9994L28.9965 56.4119L29.1809 56.5686L33.8163 51.1563L33.6319 50.9994Z" fill="#E11D48"/>
<path d="M39.4025 48.7176L34.7989 54.8433L34.9932 54.9878L39.5968 48.8621L39.4025 48.7176Z" fill="#E11D48"/>
<path d="M45.8575 46.1509L41.1557 53.1055L41.3571 53.24L46.059 46.2854L45.8575 46.1509Z" fill="#E11D48"/>
<path d="M53.0391 43.3465L47.4571 51.4196L47.6571 51.5563L53.2391 43.4831L53.0391 43.3465Z" fill="#E11D48"/>
<path d="M59.8843 40.6438L53.7354 49.722L53.9367 49.8566L60.0856 40.7784L59.8843 40.6438Z" fill="#E11D48"/>
<path d="M66.5768 38.0225L59.8872 48.0644L60.0896 48.1974L66.7792 38.1556L66.5768 38.0225Z" fill="#E11D48"/>
<path d="M70.6802 38.566L66.057 46.4055L66.2666 46.5271L70.8898 38.6875L70.6802 38.566Z" fill="#E11D48"/>
<path d="M394.921 145.502L393.529 145.4L394.406 140.896L395.798 140.999L394.921 145.502ZM190.612 141.76C188.153 141.731 185.786 141.49 183.604 141.066L184.022 140.187C186.11 140.581 188.338 140.794 190.703 140.824L190.612 141.76ZM197.665 141.396L197.431 140.495C199.566 140.257 201.839 139.865 204.112 139.383L204.531 140.252C202.211 140.765 199.892 141.157 197.665 141.396ZM396.675 136.526L395.283 136.424C395.561 134.913 395.837 133.432 396.114 131.921L397.506 131.993C397.229 133.504 396.953 135.015 396.675 136.526ZM177.153 139.16C175.25 138.341 173.439 137.31 171.86 136.124L172.927 135.537C174.459 136.662 176.131 137.636 177.941 138.427L177.153 139.16ZM211.118 138.569L210.561 137.762C212.602 137.163 214.689 136.473 216.73 135.693L217.38 136.468C215.34 137.249 213.205 137.939 211.118 138.569ZM223.457 134.039L222.713 133.294C224.615 132.456 226.516 131.557 228.371 130.628L229.207 131.341C227.306 132.3 225.358 133.2 223.457 134.039ZM167.912 132.346C166.844 131.095 165.914 129.69 165.078 128.193L166.377 127.874C167.167 129.341 168.096 130.686 169.118 131.909L167.912 132.346ZM398.244 127.492L396.852 127.419C397.129 125.878 397.359 124.368 397.543 122.919L398.935 122.991C398.751 124.441 398.521 125.95 398.244 127.492ZM234.587 128.407L233.659 127.726C235.374 126.739 237.044 125.693 238.621 124.677L238.713 124.616L239.688 125.236L239.596 125.297C238.066 126.342 236.35 127.39 234.587 128.407ZM163.171 123.816C162.706 122.376 162.379 120.872 162.192 119.307L163.584 119.229C163.771 120.764 164.098 122.236 164.516 123.648L163.171 123.816ZM244.604 121.917L243.582 121.297C245.113 120.222 246.689 119.086 248.265 117.92L249.287 118.509C247.711 119.706 246.134 120.842 244.604 121.917ZM399.581 118.461L398.189 118.419C398.373 116.879 398.557 115.369 398.695 113.92L400.087 113.962C399.949 115.411 399.765 116.921 399.581 118.461ZM253.924 115.073L252.856 114.484C254.293 113.381 255.777 112.245 257.353 110.989L258.421 111.548C256.845 112.805 255.361 113.97 253.924 115.073ZM163.394 114.739L162.002 114.727C162.047 113.28 162.185 111.74 162.461 110.169L163.854 110.241C163.577 111.812 163.439 113.322 163.394 114.739ZM400.453 109.406L399.061 109.394C399.153 107.885 399.244 106.347 399.29 104.869L400.682 104.881C400.636 106.359 400.545 107.897 400.453 109.406ZM262.872 107.993L261.805 107.434C263.288 106.24 264.726 105.076 266.209 103.881L267.276 104.44C265.793 105.634 264.355 106.828 262.872 107.993ZM164.777 105.768L163.385 105.635C163.57 104.849 163.801 104.032 164.033 103.215C164.218 102.52 164.449 101.853 164.633 101.158L165.979 101.321C165.748 102.017 165.563 102.683 165.378 103.379C165.147 104.196 164.962 105.012 164.777 105.768ZM399.377 100.376C399.376 98.8685 399.328 97.3317 399.234 95.8557L400.626 95.8076C400.72 97.2835 400.722 98.821 400.769 100.327L399.377 100.376ZM271.681 100.885L270.614 100.326C272.098 99.1316 273.535 97.9372 275.018 96.7725L276.086 97.3314C274.602 98.4962 273.118 99.6911 271.681 100.885ZM167.506 96.93L166.16 96.7364C166.67 95.343 167.225 93.8888 167.827 92.3134L169.173 92.5372C168.571 94.0825 168.015 95.5065 167.506 96.93ZM280.49 93.7774L279.423 93.2184C280.999 91.962 282.483 90.7972 283.92 89.6933L284.988 90.2823C283.551 91.3561 282.067 92.5209 280.49 93.7774ZM398.904 91.3683C398.764 89.8628 398.576 88.3579 398.343 86.8837L399.735 86.7752C399.969 88.2494 400.156 89.7845 400.296 91.29L398.904 91.3683ZM289.532 86.817L288.511 86.2272C290.087 85.0613 291.663 83.8953 293.194 82.8204L294.215 83.4402C292.685 84.5151 291.108 85.651 289.532 86.817ZM170.978 88.1426L169.632 87.9189C170.234 86.464 170.881 85.0086 171.484 83.5237L172.83 83.7474C172.227 85.2324 171.58 86.6878 170.978 88.1426ZM397.504 82.4329C397.457 82.1924 397.411 81.9518 397.363 81.7112C397.084 80.4488 396.712 79.2176 396.293 78.0474L397.638 77.8189C398.058 79.0193 398.43 80.2806 398.709 81.5733C398.756 81.8138 398.803 82.0543 398.849 82.2949L397.504 82.4329ZM299.038 80.1218L298.063 79.5014C299.732 78.3945 301.448 77.287 303.071 76.2712L304.046 76.9218C302.377 77.9382 300.707 79.0149 299.038 80.1218ZM174.728 79.3817L173.382 79.158C174.03 77.7026 174.631 76.2478 175.28 74.7924L176.626 75.016C176.024 76.4709 175.376 77.9263 174.728 79.3817ZM394.386 73.7612C393.597 72.3545 392.62 70.9805 391.598 69.7275L392.804 69.2899C393.873 70.5723 394.849 71.9765 395.686 73.4429L394.386 73.7612ZM309.147 73.841L308.219 73.1597C310.027 72.1414 311.836 71.1231 313.598 70.1959L314.48 70.908C312.718 71.8352 310.909 72.8234 309.147 73.841ZM178.431 70.6215L177.086 70.3978C177.733 68.8217 178.289 67.3977 178.798 66.0043L180.143 66.198C179.634 67.5913 179.079 69.0455 178.431 70.6215ZM320.046 68.1528L319.257 67.4095C321.158 66.5106 323.152 65.6406 325.101 64.8014L325.843 65.5454C323.849 66.3852 321.947 67.2539 320.046 68.1528ZM387.836 66.0683C386.397 64.9113 384.818 63.8464 383.147 62.9035L384.074 62.1981C385.838 63.1701 387.463 64.2644 388.95 65.4811L387.836 66.0683ZM331.781 63.2376L331.13 62.4623C331.362 62.3689 331.594 62.2754 331.872 62.2115C333.728 61.5543 335.584 60.9274 337.438 60.3909L337.997 61.2277C336.187 61.7637 334.331 62.3605 332.523 63.017C332.244 63.0809 332.013 63.1442 331.781 63.2376ZM377.576 60.4434C375.626 59.7452 373.538 59.1693 371.357 58.7454L371.773 57.8658C374.047 58.3186 376.229 58.8933 378.272 59.6204L377.576 60.4434ZM181.763 61.7454L180.417 61.5821C180.926 60.0682 181.389 58.5548 181.805 57.1325L183.197 57.2652C182.735 58.7182 182.272 60.2315 181.763 61.7454ZM344.398 59.547L343.979 58.6782C346.253 58.1965 348.572 57.7745 350.799 57.4744L351.032 58.3758C348.852 58.6753 346.625 59.066 344.398 59.547ZM364.72 57.8969C362.539 57.7442 360.219 57.714 357.899 57.8044L357.852 56.9006C360.265 56.8091 362.631 56.8387 364.905 56.9901L364.72 57.8969ZM184.26 52.7898L182.868 52.6873C183.191 51.1758 183.468 49.6649 183.699 48.2149L185.091 48.2873C184.86 49.7373 184.583 51.2482 184.26 52.7898ZM185.55 43.7292L184.159 43.7172C184.204 42.7821 184.249 41.8469 184.248 40.9727C184.247 40.3999 184.247 39.8272 184.2 39.2248L185.592 39.1767C185.593 39.7494 185.639 40.3517 185.64 40.9245C185.641 41.859 185.596 42.7941 185.55 43.7292ZM76.1332 40.9873L75.1118 40.3675C76.5492 39.3841 78.033 38.2796 79.7485 36.9612L80.8163 37.5502C79.1008 38.8687 77.5707 40.004 76.1332 40.9873ZM183.779 34.7385C183.544 33.2343 183.218 31.7613 182.846 30.3191L184.237 30.1503C184.657 31.6221 184.936 33.1258 185.17 34.6602L183.779 34.7385ZM85.3603 34.0547L84.2925 33.4957C85.4516 32.5764 86.6571 31.6262 87.8625 30.6459L88.7434 29.9411L89.8112 30.5001L88.9303 31.2048C87.7248 32.155 86.5193 33.1051 85.3603 34.0547ZM181.357 25.9672C180.985 25.0677 180.566 24.1686 180.148 23.2697C179.869 22.7608 179.589 22.2219 179.311 21.713L180.609 21.3645C180.935 21.903 181.214 22.4118 181.494 22.9508C181.958 23.8492 182.377 24.7783 182.749 25.6778L181.357 25.9672ZM94.216 26.9761L93.1482 26.4172C94.8174 25.1294 96.301 23.9646 97.6921 22.9216L98.7599 23.5107C97.3688 24.5235 95.8851 25.6582 94.216 26.9761ZM103.397 20.0742L102.375 19.4846C104.045 18.2872 105.667 17.1809 107.244 16.1656L108.219 16.7861C106.689 17.7706 105.065 18.8769 103.397 20.0742ZM176.43 17.7107C175.316 16.3987 174.108 15.1482 172.761 13.99L173.874 13.4329C175.267 14.6207 176.522 15.9309 177.682 17.2423L176.43 17.7107ZM113.32 13.6752L112.391 12.9939C114.247 11.9449 116.102 10.9561 117.864 10.0892L118.7 10.8019C116.937 11.6688 115.129 12.6268 113.32 13.6752ZM168.303 10.6714C166.631 9.63796 164.913 8.69555 163.056 7.87553L163.845 7.11166C165.748 7.96122 167.559 8.93258 169.277 9.99557L168.303 10.6714ZM124.451 8.28548L123.754 7.51071C125.842 6.69986 127.976 5.97883 130.063 5.40914L130.575 6.24661C128.579 6.78495 126.538 7.47463 124.451 8.28548ZM157.115 5.75186C155.027 5.17601 152.845 4.75209 150.618 4.50965L150.896 3.63181C153.169 3.9038 155.443 4.32652 157.671 4.93071L157.115 5.75186ZM137.116 4.83539L136.836 3.96478C139.156 3.60309 141.522 3.39156 143.842 3.33133L143.889 4.23511C141.662 4.29412 139.389 4.50447 137.116 4.83539Z" fill="#E11D48"/>
</g>
</svg>
